<svg width="135" height="196" viewBox="0 0 135 196" fill="none" xmlns="http://www.w3.org/2000/svg">
<path d="M17.261 3H130.508V35.7757H49.6146H47.4395L47.2487 37.9423L43.414 81.494L42.8239 88.196L47.4906 83.3498C52.0035 78.6632 57.3898 75.0096 63.6757 72.3905C69.9253 69.7864 76.9139 68.4645 84.6751 68.4645C95.9745 68.4645 105.953 71.1079 114.679 76.3433L114.703 76.3577L114.727 76.3714C123.657 81.449 130.652 88.528 135.74 97.6504L135.753 97.6741L135.766 97.6979C141.003 106.599 143.656 116.947 143.656 128.815C143.656 142.503 140.549 154.092 134.446 163.688C128.29 173.182 120.128 180.469 109.922 185.574C99.6852 190.514 88.3602 193 75.9099 193C56.7284 193 40.8715 188.7 28.1975 180.251C16.3796 172.373 8.31693 161.442 4 147.351H43.1027C45.7551 151.284 49.5616 154.307 54.4021 156.459C59.6786 158.804 65.5841 159.95 72.0751 159.95C81.1437 159.95 88.8451 157.331 95.0001 151.97C101.256 146.522 104.306 139.07 104.306 129.91C104.306 120.768 101.265 113.395 94.9982 108.122C89.0082 102.746 81.2939 100.144 72.0751 100.144C65.8993 100.144 59.9985 101.401 54.3952 103.913C49.2173 106.235 44.9489 109.258 41.6618 113.019H6.75804L17.261 3Z" fill="#141414" stroke="#808080" stroke-width="5"/>
</svg>
