<svg width="136" height="196" viewBox="0 0 136 196" fill="none" xmlns="http://www.w3.org/2000/svg">
<path d="M41.9004 51.3636H5.81814C9.71596 37.1276 17.2349 25.6979 28.3733 16.9809C40.2015 7.72399 55.5635 3 74.6581 3C86.5225 3 97.1797 5.17948 106.67 9.49338L106.694 9.50406L106.718 9.51423C116.366 13.6491 123.968 19.6455 129.597 27.4932L129.607 27.507L129.617 27.5205C135.365 35.2966 138.273 44.5355 138.273 55.3481C138.273 64.0238 135.985 71.5918 131.453 78.1388C126.939 84.6573 120.387 89.5695 111.652 92.8236L105.189 95.2313L111.764 97.3131C122.071 100.577 129.736 106.016 134.936 113.565C140.205 121.213 142.833 129.684 142.833 139.042C142.833 150.402 139.83 159.992 133.914 167.936L133.905 167.949L133.895 167.963C128.095 175.981 120.141 182.161 109.946 186.482C99.7333 190.809 88.0741 193 74.9264 193C54.172 193 37.8248 188.341 25.656 179.261C14.1829 170.532 6.96362 158.855 4 144.1H41.4054C43.7253 149.315 47.6962 153.343 53.1818 156.175L53.1953 156.182L53.209 156.188C59.3215 159.245 66.405 160.731 74.3899 160.731C82.45 160.731 89.4527 158.854 95.2749 154.977C101.625 150.873 104.663 144.312 104.663 135.823C104.663 128.141 101.648 122.156 95.5348 118.273C89.6887 114.384 82.4087 112.525 73.8534 112.525H52.6223V81.5975H72.2439C80.488 81.5975 87.3961 79.6263 92.7478 75.4639L92.7691 75.4474L92.7899 75.4304C98.1933 71.0277 100.907 65.1549 100.907 58.0306C100.907 50.4206 98.1268 44.4963 92.3307 40.7586C86.831 37.0354 79.898 35.2686 71.7074 35.2686C64.2279 35.2686 57.7086 36.8575 52.2607 40.1573C47.3846 42.9502 43.8792 46.6834 41.9004 51.3636Z" fill="#141414" stroke="#808080" stroke-width="5"/>
</svg>
