<svg width="135" height="196" viewBox="0 0 135 196" fill="none" xmlns="http://www.w3.org/2000/svg">
<path d="M111.671 14.649L111.688 14.6609L111.705 14.6724C123.078 22.2547 131.737 33.0437 137.657 47.1469C143.588 61.2756 146.592 78.1168 146.592 97.7321C146.592 129.098 140.03 152.726 127.251 168.958L127.249 168.961C114.709 184.937 96.9341 193 73.5892 193C55.9118 193 41.1107 188.893 29.0587 180.807C18.0234 173.125 10.404 162.623 6.20009 149.196H44.5474C46.7778 152.995 50.0543 155.951 54.286 158.067L54.3382 158.092L54.3917 158.116C59.2281 160.244 64.8435 161.268 71.1749 161.268C82.6137 161.268 91.8209 156.833 98.5491 147.992L98.5567 147.981L98.5634 147.972C105.257 138.984 108.773 124.891 109.494 106.139L109.814 97.8119L105.152 104.718C100.55 111.537 94.6952 116.709 87.5695 120.277C80.4596 123.658 71.7149 125.401 61.2496 125.401C50.3698 125.401 40.5908 122.902 31.8583 117.94C23.0936 112.782 16.0534 105.83 10.7162 97.0576C5.58543 88.1549 3 78.1161 3 66.8829C3 53.6855 6.11911 42.4445 12.261 33.0553C18.6513 23.5606 26.9249 16.2369 37.1105 11.0578L37.1174 11.0543L37.1243 11.0508C47.52 5.67961 58.5025 3 70.1019 3C86.7073 3 100.518 6.92798 111.671 14.649ZM49.1635 87.6613L49.1768 87.6738L49.1902 87.686C55.5541 93.4714 63.2868 96.3508 72.248 96.3508C81.0453 96.3508 88.6099 93.4607 94.7958 87.6613C101.023 81.8233 104.13 74.3885 104.13 65.5416C104.13 56.5395 101.038 49.0856 94.7812 43.4082C88.598 37.6181 81.0383 34.7321 72.248 34.7321C63.2875 34.7321 55.5552 37.6115 49.1917 43.396C42.926 49.0749 39.8288 56.533 39.8288 65.5416C39.8288 74.3885 42.9363 81.8233 49.1635 87.6613Z" fill="#141414" stroke="#808080" stroke-width="5"/>
</svg>
