<svg width="134" height="196" viewBox="0 0 134 196" fill="none" xmlns="http://www.w3.org/2000/svg">
<path d="M37.9258 181.353C26.7142 173.414 18.0412 162.346 11.9367 148.051C6.00195 133.557 3 116.533 3 96.9275C3 76.7872 6.26942 59.8 12.706 45.8834L12.7105 45.8731C19.1668 31.7392 28.0084 21.1204 39.1938 13.8908C50.5812 6.64618 63.6308 3 78.4177 3C96.4762 3 110.668 7.20559 121.226 15.379L121.235 15.3864L121.245 15.3937C131.135 22.8916 138.336 33.3185 142.793 46.8034H104.698C102.351 43.1935 99.1229 40.3327 95.0749 38.2205C90.5427 35.8558 85.1368 34.7321 78.9542 34.7321C67.4806 34.7321 58.1951 39.3728 51.3093 48.5486C44.4306 57.5356 40.8208 71.451 40.0989 89.8595L39.789 97.7616L44.4014 91.3376C49.1892 84.6688 55.1535 79.5609 62.3118 75.9817C69.4194 72.4279 78.0682 70.5991 88.343 70.5991C99.0279 70.5991 108.713 73.179 117.451 78.3187L117.475 78.3326L117.499 78.3459C126.42 83.3213 133.443 90.256 138.594 99.1865L138.609 99.2103L138.622 99.2341C143.916 107.944 146.592 117.97 146.592 129.385C146.592 142.947 143.382 154.358 137.072 163.737C130.685 173.231 122.418 180.463 112.242 185.465C102.024 190.487 91.1165 193 79.4907 193C63.0796 193 49.2654 189.079 37.9258 181.353ZM100.4 152.874L100.415 152.86L100.429 152.846C106.656 147.009 109.764 139.574 109.764 130.727C109.764 121.887 106.661 114.456 100.443 108.62C94.2537 102.63 86.5907 99.6492 77.6129 99.6492C68.7997 99.6492 61.1562 102.639 54.8093 108.595C48.4047 114.425 45.1939 121.861 45.1939 130.727C45.1939 139.599 48.4095 147.04 54.8235 152.871L54.8384 152.884L54.8534 152.898C61.2101 158.484 68.8393 161.268 77.6129 161.268C86.5512 161.268 94.1999 158.492 100.4 152.874Z" fill="#141414" stroke="#808080" stroke-width="5"/>
</svg>
