<svg width="135" height="196" viewBox="0 0 135 196" fill="none" xmlns="http://www.w3.org/2000/svg">
<path d="M61.5768 160.224H141.101V193H4.23944V161.393L77.6495 97.1925C77.6508 97.1916 77.6521 97.1906 77.6534 97.1897C85.9123 90.0312 91.7753 83.9237 95.0642 78.8934C98.4291 73.7471 100.108 67.9973 100.108 61.707C100.108 54.6763 97.5665 48.6684 92.5299 43.8329C87.3932 38.9016 80.2442 36.5974 71.4375 36.5974C62.8332 36.5974 55.6101 38.7052 49.9794 43.1272C45.1092 46.9167 41.7856 51.7932 40.0304 57.6885H3C4.79288 47.4721 8.44683 38.5106 13.9345 30.7621C20.0896 22.1464 28.0907 15.3683 37.9795 10.4225C48.0193 5.49225 59.4291 3 72.2593 3C85.4689 3 97.0611 5.4977 107.094 10.4262L107.109 10.4337L107.124 10.4409C117.162 15.1956 125.038 21.9453 130.811 30.6938L130.817 30.703L130.823 30.7123C136.555 39.2227 139.458 49.2484 139.458 60.8852C139.458 73.2059 136.124 83.8406 129.513 92.8916C122.708 102.022 113.901 111.109 103.06 120.143L103.059 120.144L60.0552 156.026L55.0233 160.224H61.5768Z" fill="#141414" stroke="#808080" stroke-width="5"/>
</svg>
