<svg width="135" height="196" viewBox="0 0 135 196" fill="none" xmlns="http://www.w3.org/2000/svg">
<path d="M3 25.2595L83.2855 4.2384V188.976H45.6519V48.3736V45.2521L42.6434 46.0846L3 57.0552V25.2595ZM111.797 47.438L111.801 47.4282C117.91 33.1153 126.497 22.2309 137.519 14.6534L137.525 14.649C148.717 6.90074 161.738 3 176.679 3C191.806 3 204.818 6.90403 215.819 14.6391L215.829 14.6463L215.84 14.6534C226.861 22.2309 235.448 33.1153 241.557 47.4282L241.562 47.438C247.664 61.5599 250.755 78.3928 250.755 98C250.755 117.604 247.665 134.529 241.559 148.835C235.454 162.965 226.866 173.859 215.829 181.622C204.828 189.182 191.813 193 176.679 193C161.735 193 148.712 189.187 137.522 181.617C126.489 173.855 117.903 162.961 111.799 148.834C105.693 134.528 102.603 117.603 102.603 98C102.603 78.3928 105.695 61.5599 111.797 47.438ZM203.155 143.436L203.158 143.428L203.163 143.42C209.344 132.369 212.317 117.153 212.317 98C212.317 78.8552 209.347 63.7212 203.158 52.84C196.921 41.6921 188.068 35.8051 176.679 35.8051C165.291 35.8051 156.437 41.692 150.2 52.84C144.011 63.7212 141.041 78.8552 141.041 98C141.041 117.153 144.014 132.369 150.196 143.42L150.2 143.428L150.204 143.436C156.452 154.417 165.309 160.195 176.679 160.195C188.05 160.195 196.906 154.417 203.155 143.436Z" fill="#141414" stroke="#808080" stroke-width="5"/>
</svg>
