<svg width="135" height="196" viewBox="0 0 135 196" fill="none" xmlns="http://www.w3.org/2000/svg">
<path d="M37.1527 186.72C26.4215 182.564 18.0381 176.55 11.9017 168.718C5.99702 160.779 3 151.196 3 139.848C3 130.182 5.9535 121.477 11.9009 113.659C18.0163 105.676 26.2621 100.044 36.7404 96.7802L43.3968 94.707L36.859 92.2856C27.5951 88.8545 20.5969 83.6772 15.7272 76.8046C10.9894 69.6872 8.63326 61.9276 8.63326 53.4704C8.63326 43.5648 11.3556 34.9409 16.763 27.5057C22.2043 20.0241 29.8062 14.101 39.6706 9.77451L39.6864 9.76753L39.7022 9.76033C49.5277 5.27858 61.0716 3 74.3939 3C87.7163 3 99.2607 5.27858 109.086 9.76033L109.102 9.76753L109.117 9.77451C118.982 14.101 126.584 20.0241 132.025 27.5057C137.433 34.9409 140.154 43.5648 140.154 53.4704C140.154 61.9194 137.715 69.6769 132.796 76.8L132.789 76.8101C128.102 83.6733 121.201 88.8517 111.929 92.2856L105.391 94.707L112.048 96.7802C122.522 100.043 130.669 105.67 136.601 113.636L136.618 113.659L136.636 113.681C142.755 121.501 145.788 130.198 145.788 139.848C145.788 151.191 142.704 160.772 136.62 168.715L136.616 168.721C130.66 176.548 122.369 182.564 111.628 186.722C100.863 190.889 88.4655 193 74.3939 193C60.5084 193 48.1059 190.891 37.1527 186.72ZM95.6488 75.7727L95.6697 75.7576L95.6896 75.7423C101.679 71.1501 104.667 64.7998 104.667 56.9576C104.667 49.4278 101.644 43.275 95.6896 38.7095C89.8443 34.2282 82.696 32.0496 74.3939 32.0496C66.092 32.0496 58.9436 34.2282 53.0984 38.7095C47.1435 43.275 44.1208 49.4278 44.1208 56.9576C44.1208 64.7998 47.1086 71.1501 53.0984 75.7423L53.1331 75.769L53.1688 75.7942C59.1659 80.0502 66.2787 82.1339 74.3939 82.1339C82.6727 82.1339 89.8061 80.0574 95.6488 75.7727ZM97.9896 156.3L98.0095 156.286L98.0285 156.273C104.764 151.518 108.155 144.791 108.155 136.36C108.155 128.25 104.735 121.724 98.0475 116.996C91.4994 112.188 83.5698 109.843 74.3939 109.843C65.218 109.843 57.2884 112.188 50.7405 116.996C44.0536 121.724 40.6336 128.25 40.6336 136.36C40.6336 144.791 44.0242 151.518 50.7595 156.273L50.7788 156.286L50.7984 156.3C57.3426 160.727 65.2503 162.877 74.3939 162.877C83.5376 162.877 91.4453 160.727 97.9896 156.3Z" fill="#141414" stroke="#808080" stroke-width="5"/>
</svg>
