<svg width="24" height="24" viewBox="0 0 24 24" fill="none" xmlns="http://www.w3.org/2000/svg">
<g clip-path="url(#clip0_1_89)">
<path d="M13.5927 17.2795L23.9452 6.25013C23.9722 6.22951 23.9908 6.19973 23.9973 6.16641C24.0039 6.13308 23.9981 6.09849 23.981 6.06914C23.9639 6.03979 23.9366 6.01771 23.9044 6.00705C23.8721 5.99638 23.8371 5.99786 23.8059 6.01122H0.194149C0.162909 5.99786 0.127867 5.99638 0.0956101 6.00705C0.063353 6.01771 0.036103 6.03979 0.0189841 6.06914C0.00186515 6.09849 -0.00394355 6.13308 0.00264983 6.16641C0.0092432 6.19973 0.0277846 6.22951 0.0547879 6.25013L10.4073 17.2795C10.612 17.4965 10.8589 17.6693 11.1328 17.7874C11.4066 17.9055 11.7017 17.9664 12 17.9664C12.2983 17.9664 12.5934 17.9055 12.8672 17.7874C13.1411 17.6693 13.388 17.4965 13.5927 17.2795V17.2795Z" fill="#141414"/>
</g>
<defs>
<clipPath id="clip0_1_89">
<rect width="24" height="24" fill="white"/>
</clipPath>
</defs>
</svg>
