<svg width="15" height="14" viewBox="0 0 15 14" fill="none" xmlns="http://www.w3.org/2000/svg">
<path d="M13.8639 2.45431L9.31817 7L13.8639 11.5457C14.105 11.7868 14.2404 12.1138 14.2404 12.4548C14.2404 12.7958 14.105 13.1228 13.8639 13.364C13.6227 13.6051 13.2957 13.7405 12.9547 13.7405C12.6137 13.7405 12.2867 13.6051 12.0456 13.364L7.4999 8.81827L2.95421 13.364C2.71309 13.6051 2.38606 13.7405 2.04507 13.7405C1.70408 13.7405 1.37705 13.6051 1.13593 13.364C0.894816 13.1228 0.759357 12.7958 0.759357 12.4548C0.759357 12.1138 0.894816 11.7868 1.13593 11.5457L5.68162 7L1.13593 2.45431C0.894816 2.2132 0.759357 1.88617 0.759357 1.54518C0.759357 1.20418 0.894816 0.877157 1.13593 0.636038C1.37705 0.394921 1.70408 0.259462 2.04507 0.259462C2.38606 0.259461 2.71309 0.39492 2.95421 0.636039L7.4999 5.18173L12.0456 0.636039C12.2867 0.394921 12.6137 0.259461 12.9547 0.259461C13.2957 0.259461 13.6227 0.39492 13.8639 0.636038C14.105 0.877156 14.2404 1.20418 14.2404 1.54518C14.2404 1.88617 14.105 2.2132 13.8639 2.45431Z" fill="white"/>
</svg>
